<?xml version="1.0" encoding="UTF-8" standalone="no"?><svg xmlns="http://www.w3.org/2000/svg" width="500" height="500" viewBox="0 0 132.292 132.292"><metadata/><g style="fill:#2db7e1;fill-opacity:1"><path d="M0 0v38.438c0 2.593.562 3.031 2.813 3.031H33c6.063 0 21.438-4.344 22.563-21.407 0 0 1.125-17.874-18.563-22.687-8.313-.188-32.5 0-34.562 0C.375-2.625 0-2.25 0 0m39.916-38.375H8.063C5-38.375.125-37.188.062-30.625c-.062 6.563 5.313 8 9.938 8h19.562s10.313-.312 15.521 1.563c10.5 4.333 30 14.5 30 41.666 0 27.167-24.5 40.083-39.333 40.083H20.916l-13.791-.041c-2 0-7.375 2.667-7.25 7.75 0 7.25 6.916 8.833 10.5 8.75 3.583-.083 26.208.625 32.708-.709 36.001-7.166 47.499-30.499 49.499-55.833-.666-48.166-44.332-58.979-52.666-58.979m71.834 62.312c-2.75 45.001-42 72.501-77.584 72.084H9.75c-6.334 0-9.812 4.5-9.812 12v30.666c0 12.959-19.522 11.75-19.522 0V-.063c0-3.042-.416-3.093-2.291-3.083h-12.042c-1.75 0-1.917.625-1.917 2.875v137.708c0 13.832-19.333 13.665-19.333 0 0-7.416-.083-55.249-.083-75.749 0 0 .062-58.375.062-71.813 0-13.437 9.438-12.437 9.438-12.437h26.656v-27.469c0-5.282 3.969-7.532 9.906-7.532 5.938 0 24.104.5 43.271 0s36.167 8.334 36.167 8.334c45.832 25.167 41.5 73.166 41.5 73.166" style="fill:#2db7e1;fill-opacity:1;fill-rule:nonzero;stroke:none" transform="matrix(.46718 0 0 -.46718 52.31 74.19)"/></g><g style="fill:#2db7e1;fill-opacity:1"><path d="M0 0h1.411C3.7 0 5.333.348 6.309 1.043c.976.695 1.463 1.843 1.463 3.443 0 1.419-.441 2.468-1.326 3.15-.885.68-2.24 1.021-4.066 1.021H0Zm-.042-13.671h3.497c2.05 0 3.559.383 4.528 1.149.969.764 1.454 1.948 1.454 3.548 0 1.742-.506 3.062-1.517 3.96-1.011.9-2.5 1.349-4.465 1.349H-.042ZM2.19 12.85c3.272 0 5.758-.717 7.457-2.149 1.699-1.432 2.549-3.518 2.549-6.257 0-1.263-.277-2.38-.832-3.348-.555-.97-1.366-1.77-2.433-2.402 1.503-.45 2.689-1.313 3.56-2.59.871-1.279 1.306-2.802 1.306-4.572 0-1.432-.267-2.777-.8-4.034-.534-1.257-1.271-2.299-2.212-3.128a8.392 8.392 0 0 0-3.149-1.684c-1.173-.337-2.826-.506-4.961-.506h-7.077v30.67z" style="fill:#2db7e1;fill-opacity:1;fill-rule:nonzero;stroke:none" transform="matrix(.46718 0 0 -.46718 7.348 114.668)"/></g><g style="fill:#2db7e1;fill-opacity:1"><path d="M0 0h-4.002v2.591C-4.831 1.538-5.761.755-6.793.242c-1.032-.513-2.187-.768-3.465-.768-2.921 0-5.182.905-6.783 2.716-1.601 1.812-2.401 4.361-2.401 7.647v13.334h4.171V11.038c0-2.5.442-4.375 1.327-5.625.884-1.25 2.212-1.874 3.981-1.874 1.095 0 2.071.256 2.928.769.856.512 1.537 1.246 2.043 2.201.309.59.53 1.292.663 2.106.134.815.201 2.128.201 3.94v10.616H0Z" style="fill:#2db7e1;fill-opacity:1;fill-rule:nonzero;stroke:none" transform="matrix(.46718 0 0 -.46718 24.983 122.993)"/></g><g style="fill:#2db7e1;fill-opacity:1"><path d="M0 0h4.487l6.256-17.252L17.525 0h4.487L9.542-30.67H5.14l3.222 8.152z" style="fill:#2db7e1;fill-opacity:1;fill-rule:nonzero;stroke:none" transform="matrix(.46718 0 0 -.46718 26.655 112.168)"/></g><path d="M39.342 24.628h2.097v11.766h-2.097zm2.097-1.38h-2.097V20.82h2.097z" style="fill:#2db7e1;fill-opacity:1;fill-rule:nonzero;stroke:none;stroke-width:.50781" transform="matrix(.92 0 0 .92 2.279 89.51)"/><g style="fill:#2db7e1;fill-opacity:1"><path d="M0 0h-4.17v23.171h4.002v-2.633c.87 1.039 1.829 1.801 2.875 2.285 1.046.485 2.243.727 3.592.727 3.033 0 5.36-.892 6.982-2.675 1.622-1.784 2.434-4.34 2.434-7.668V0h-4.193v12.302c0 2.457-.456 4.279-1.369 5.466-.913 1.186-2.324 1.78-4.233 1.78-2.079 0-3.585-.699-4.519-2.096C.467 16.055 0 13.748 0 10.532Z" style="fill:#2db7e1;fill-opacity:1;fill-rule:nonzero;stroke:none" transform="matrix(.46718 0 0 -.46718 45.076 122.993)"/></g><g style="fill:#2db7e1;fill-opacity:1"><path d="M0 0c0-2.345.775-4.311 2.327-5.897 1.552-1.587 3.451-2.381 5.698-2.381 2.05 0 3.858.797 5.424 2.391 1.566 1.594 2.349 3.457 2.349 5.592 0 2.275-.777 4.224-2.328 5.846-1.552 1.622-3.395 2.432-5.53 2.432-2.19 0-4.061-.772-5.613-2.316C.775 4.122 0 2.233 0 0m-2.802-13.586h4.445c.645-1.081 1.492-1.906 2.538-2.476 1.046-.568 2.243-.852 3.591-.852 2.345 0 4.234.705 5.666 2.117 1.433 1.411 2.149 3.282 2.149 5.613v.295c-1.067-1.109-2.257-1.948-3.57-2.517a10.459 10.459 0 0 0-4.203-.853c-3.482 0-6.376 1.161-8.678 3.487-2.303 2.323-3.454 5.234-3.454 8.73 0 1.629.287 3.174.863 4.635A11.671 11.671 0 0 0-.99 8.447c1.165 1.222 2.439 2.124 3.823 2.707 1.383.582 2.959.874 4.729.874 1.572 0 3.029-.281 4.371-.842 1.34-.562 2.573-1.412 3.696-2.549v2.801H19.8V-7.898c0-4.031-1.046-7.187-3.139-9.469-2.093-2.282-4.971-3.423-8.636-3.423-2.654 0-4.922.629-6.803 1.885-1.883 1.258-3.224 3.03-4.024 5.319" style="fill:#2db7e1;fill-opacity:1;fill-rule:nonzero;stroke:none" transform="matrix(.46718 0 0 -.46718 56.57 117.512)"/></g><g style="fill:#969da1;fill-opacity:1"><path d="M0 0h1.412C3.7 0 5.333.348 6.31 1.043c.975.695 1.463 1.843 1.463 3.443 0 1.419-.442 2.468-1.327 3.15-.884.68-2.24 1.021-4.065 1.021H0Zm-.042-13.671h3.497c2.05 0 3.56.383 4.528 1.149.97.764 1.455 1.948 1.455 3.548 0 1.742-.506 3.062-1.517 3.96-1.012.9-2.5 1.349-4.466 1.349H-.042ZM2.191 12.85c3.272 0 5.757-.717 7.456-2.149 1.7-1.432 2.549-3.518 2.549-6.257 0-1.263-.277-2.38-.832-3.348-.554-.97-1.365-1.77-2.432-2.402 1.503-.45 2.689-1.313 3.559-2.59.871-1.279 1.307-2.802 1.307-4.572 0-1.432-.268-2.777-.801-4.034-.534-1.257-1.271-2.299-2.212-3.128a8.388 8.388 0 0 0-3.148-1.684c-1.173-.337-2.827-.506-4.961-.506h-7.078v30.67z" style="fill:#969da1;fill-opacity:1;fill-rule:nonzero;stroke:none" transform="matrix(.46718 0 0 -.46718 70.642 114.668)"/></g><g style="fill:#969da1;fill-opacity:1"><path d="M0 0h-4.002v2.591C-4.831 1.538-5.761.755-6.793.242c-1.032-.513-2.187-.768-3.465-.768-2.921 0-5.181.905-6.783 2.716-1.601 1.812-2.401 4.361-2.401 7.647v13.334h4.171V11.038c0-2.5.442-4.375 1.327-5.625.884-1.25 2.212-1.874 3.981-1.874 1.095 0 2.071.256 2.928.769.856.512 1.537 1.246 2.043 2.201.308.59.53 1.292.664 2.106.133.815.2 2.128.2 3.94v10.616H0Z" style="fill:#969da1;fill-opacity:1;fill-rule:nonzero;stroke:none" transform="matrix(.46718 0 0 -.46718 88.277 122.993)"/></g><g style="fill:#969da1;fill-opacity:1"><path d="M0 0c0-2.345.775-4.311 2.327-5.897 1.552-1.587 3.451-2.381 5.698-2.381 2.05 0 3.858.797 5.424 2.391 1.566 1.594 2.349 3.457 2.349 5.592 0 2.275-.777 4.224-2.328 5.846-1.552 1.622-3.395 2.432-5.53 2.432-2.19 0-4.061-.772-5.613-2.316C.775 4.122 0 2.233 0 0m15.587-11.732v2.843c-1.067-1.109-2.257-1.948-3.57-2.517a10.459 10.459 0 0 0-4.203-.853c-3.482 0-6.376 1.161-8.678 3.487-2.303 2.323-3.454 5.234-3.454 8.73 0 1.629.287 3.174.863 4.635A11.671 11.671 0 0 0-.99 8.447c1.165 1.222 2.439 2.124 3.823 2.707 1.383.582 2.959.874 4.729.874 1.572 0 3.029-.281 4.371-.842 1.34-.562 2.573-1.412 3.696-2.549v10.3H19.8v-30.669z" style="fill:#969da1;fill-opacity:1;fill-rule:nonzero;stroke:none" transform="matrix(.46718 0 0 -.46718 92.508 117.512)"/></g><g style="fill:#969da1;fill-opacity:1"><path d="M0 0c0-2.345.775-4.311 2.327-5.897 1.552-1.587 3.451-2.381 5.698-2.381 2.05 0 3.858.797 5.424 2.391 1.566 1.594 2.349 3.457 2.349 5.592 0 2.275-.777 4.224-2.328 5.846-1.552 1.622-3.395 2.432-5.53 2.432-2.19 0-4.061-.772-5.613-2.316C.775 4.122 0 2.233 0 0m15.587-11.732v2.843c-1.067-1.109-2.257-1.948-3.57-2.517a10.459 10.459 0 0 0-4.203-.853c-3.482 0-6.376 1.161-8.678 3.487-2.303 2.323-3.454 5.234-3.454 8.73 0 1.629.287 3.174.863 4.635A11.671 11.671 0 0 0-.99 8.447c1.165 1.222 2.439 2.124 3.823 2.707 1.383.582 2.959.874 4.729.874 1.572 0 3.029-.281 4.371-.842 1.34-.562 2.573-1.412 3.696-2.549v10.3H19.8v-30.669z" style="fill:#969da1;fill-opacity:1;fill-rule:nonzero;stroke:none" transform="matrix(.46718 0 0 -.46718 105.891 117.512)"/></g><g style="fill:#969da1;fill-opacity:1"><path d="M0 0h4.487l6.256-17.252L17.526 0h4.487L9.543-30.67H5.14l3.223 8.152z" style="fill:#969da1;fill-opacity:1;fill-rule:nonzero;stroke:none" transform="matrix(.46718 0 0 -.46718 116.716 112.168)"/></g></svg>